<svg width="102" height="44" viewBox="0 0 102 44" fill="none" xmlns="http://www.w3.org/2000/svg">
<path d="M31.2207 28.5527C31.2207 29.3613 31.1094 30.0938 30.8867 30.75C30.6641 31.4062 30.3535 31.9863 29.9551 32.4902C29.5684 32.9941 29.0996 33.4277 28.5488 33.791C28.0098 34.1543 27.4121 34.4531 26.7559 34.6875C26.0996 34.9219 25.3965 35.0977 24.6465 35.2148C23.9082 35.3203 23.082 35.373 22.168 35.373H16.1211C15.7344 35.373 15.4062 35.2617 15.1367 35.0391C14.8789 34.8047 14.75 34.4297 14.75 33.9141V14.0859C14.75 13.5703 14.8789 13.2012 15.1367 12.9785C15.4062 12.7441 15.7344 12.627 16.1211 12.627H21.834C23.2285 12.627 24.4062 12.7441 25.3672 12.9785C26.3398 13.2129 27.1543 13.5703 27.8105 14.0508C28.4785 14.5195 28.9883 15.1172 29.3398 15.8438C29.6914 16.5703 29.8672 17.4258 29.8672 18.4102C29.8672 18.9609 29.7969 19.4824 29.6562 19.9746C29.5156 20.4551 29.3105 20.8945 29.041 21.293C28.7715 21.6914 28.4375 22.043 28.0391 22.3477C27.6523 22.6523 27.207 22.8984 26.7031 23.0859C27.3477 23.2031 27.9395 23.4082 28.4785 23.7012C29.0293 23.9941 29.5039 24.375 29.9023 24.8438C30.3125 25.3008 30.6348 25.8398 30.8691 26.4609C31.1035 27.082 31.2207 27.7793 31.2207 28.5527ZM25.2441 18.9727C25.2441 18.5156 25.1738 18.1055 25.0332 17.7422C24.8926 17.3789 24.6816 17.0801 24.4004 16.8457C24.1191 16.5996 23.7617 16.4121 23.3281 16.2832C22.9062 16.1543 22.3379 16.0898 21.623 16.0898H19.2852V21.9961H21.8691C22.5371 21.9961 23.0703 21.9199 23.4688 21.7676C23.8672 21.6035 24.1953 21.3867 24.4531 21.1172C24.7227 20.8359 24.9219 20.5137 25.0508 20.1504C25.1797 19.7754 25.2441 19.3828 25.2441 18.9727ZM26.4219 28.7109C26.4219 28.1836 26.334 27.7148 26.1582 27.3047C25.9824 26.8828 25.7246 26.5312 25.3848 26.25C25.0449 25.9688 24.6113 25.752 24.084 25.5996C23.5566 25.4473 22.8711 25.3711 22.0273 25.3711H19.2852V31.8398H22.625C23.2695 31.8398 23.8086 31.7754 24.2422 31.6465C24.6875 31.5059 25.0684 31.3066 25.3848 31.0488C25.7129 30.7793 25.9648 30.4512 26.1406 30.0645C26.3281 29.666 26.4219 29.2148 26.4219 28.7109Z" fill="#D85B5B"/>
<path d="M51.7625 33.6504C51.9031 34.0723 51.991 34.4062 52.0262 34.6523C52.0613 34.8984 52.0145 35.0859 51.8855 35.2148C51.7566 35.332 51.5281 35.4023 51.2 35.4258C50.8719 35.4609 50.4207 35.4785 49.8465 35.4785C49.2488 35.4785 48.7801 35.4668 48.4402 35.4434C48.1121 35.4316 47.8602 35.4023 47.6844 35.3555C47.5086 35.2969 47.3855 35.2207 47.3152 35.127C47.2449 35.0332 47.1863 34.9102 47.1395 34.7578L45.6102 30.1875H37.0672L35.6258 34.6348C35.5789 34.7988 35.5145 34.9395 35.4324 35.0566C35.3621 35.1621 35.2391 35.25 35.0633 35.3203C34.8992 35.3789 34.659 35.4199 34.3426 35.4434C34.0379 35.4668 33.6336 35.4785 33.1297 35.4785C32.5906 35.4785 32.1688 35.4609 31.8641 35.4258C31.5594 35.3906 31.3484 35.3086 31.2313 35.1797C31.1141 35.0391 31.073 34.8457 31.1082 34.5996C31.1434 34.3535 31.2313 34.0254 31.3719 33.6152L38.3855 13.4355C38.4559 13.2363 38.5379 13.0781 38.6316 12.9609C38.7254 12.832 38.8719 12.7383 39.0711 12.6797C39.282 12.6094 39.5691 12.5684 39.9324 12.5566C40.2957 12.5332 40.7762 12.5215 41.3738 12.5215C42.0652 12.5215 42.616 12.5332 43.0262 12.5566C43.4363 12.5684 43.7527 12.6094 43.9754 12.6797C44.2098 12.7383 44.3738 12.832 44.4676 12.9609C44.573 13.0898 44.6609 13.2656 44.7313 13.4883L51.7625 33.6504ZM41.3211 16.9688H41.3035L38.0867 26.6367H44.5379L41.3211 16.9688Z" fill="#D85B5B"/>
<path d="M67.1363 33.5449C67.1363 33.8848 67.1188 34.1719 67.0836 34.4062C67.0602 34.6406 67.0191 34.834 66.9605 34.9863C66.902 35.127 66.8258 35.2266 66.732 35.2852C66.65 35.3438 66.5563 35.373 66.4508 35.373H53.0387C52.5699 35.373 52.2066 35.2383 51.9488 34.9688C51.7027 34.6992 51.5797 34.3066 51.5797 33.791V33.0176C51.5797 32.7832 51.5914 32.5723 51.6148 32.3848C51.65 32.1855 51.7027 31.9863 51.773 31.7871C51.8434 31.5879 51.943 31.3711 52.0719 31.1367C52.2125 30.9023 52.3824 30.6211 52.5816 30.293L61.4059 16.3008H52.652C52.5113 16.3008 52.3883 16.2715 52.2828 16.2129C52.1891 16.1426 52.107 16.0371 52.0367 15.8965C51.9781 15.7559 51.9313 15.5684 51.8961 15.334C51.8727 15.0996 51.8609 14.8184 51.8609 14.4902C51.8609 14.1387 51.8727 13.8457 51.8961 13.6113C51.9313 13.3652 51.9781 13.1719 52.0367 13.0312C52.107 12.8789 52.1891 12.7734 52.2828 12.7148C52.3883 12.6562 52.5113 12.627 52.652 12.627H65.2203C65.7008 12.627 66.0523 12.75 66.275 12.9961C66.5094 13.2422 66.6266 13.5879 66.6266 14.0332V14.8945C66.6266 15.2109 66.609 15.4863 66.5738 15.7207C66.5504 15.9434 66.4977 16.166 66.4156 16.3887C66.3453 16.5996 66.2457 16.8223 66.1168 17.0566C65.9879 17.2793 65.8238 17.5488 65.6246 17.8652L56.941 31.6641H66.4508C66.6734 31.6641 66.8434 31.8047 66.9605 32.0859C67.0777 32.3672 67.1363 32.8535 67.1363 33.5449Z" fill="#D85B5B"/>
<path d="M86.975 33.6504C87.1156 34.0723 87.2035 34.4062 87.2387 34.6523C87.2738 34.8984 87.227 35.0859 87.098 35.2148C86.9691 35.332 86.7406 35.4023 86.4125 35.4258C86.0844 35.4609 85.6332 35.4785 85.059 35.4785C84.4613 35.4785 83.9926 35.4668 83.6527 35.4434C83.3246 35.4316 83.0727 35.4023 82.8969 35.3555C82.7211 35.2969 82.598 35.2207 82.5277 35.127C82.4574 35.0332 82.3988 34.9102 82.352 34.7578L80.8227 30.1875H72.2797L70.8383 34.6348C70.7914 34.7988 70.727 34.9395 70.6449 35.0566C70.5746 35.1621 70.4516 35.25 70.2758 35.3203C70.1117 35.3789 69.8715 35.4199 69.5551 35.4434C69.2504 35.4668 68.8461 35.4785 68.3422 35.4785C67.8031 35.4785 67.3812 35.4609 67.0766 35.4258C66.7719 35.3906 66.5609 35.3086 66.4437 35.1797C66.3266 35.0391 66.2855 34.8457 66.3207 34.5996C66.3559 34.3535 66.4437 34.0254 66.5844 33.6152L73.598 13.4355C73.6684 13.2363 73.7504 13.0781 73.8441 12.9609C73.9379 12.832 74.0844 12.7383 74.2836 12.6797C74.4945 12.6094 74.7816 12.5684 75.1449 12.5566C75.5082 12.5332 75.9887 12.5215 76.5863 12.5215C77.2777 12.5215 77.8285 12.5332 78.2387 12.5566C78.6488 12.5684 78.9652 12.6094 79.1879 12.6797C79.4223 12.7383 79.5863 12.832 79.6801 12.9609C79.7855 13.0898 79.8734 13.2656 79.9437 13.4883L86.975 33.6504ZM76.5336 16.9688H76.516L73.2992 26.6367H79.7504L76.5336 16.9688Z" fill="#D85B5B"/>
<rect x="2" y="2" width="98" height="40" stroke="#D85B5B" stroke-width="4"/>
</svg>
