<?xml version="1.0" encoding="utf-8"?><svg viewBox="0 0 24 24" xmlns="http://www.w3.org/2000/svg" xmlns:xlink="http://www.w3.org/1999/xlink"><style>:root>svg{display:none}:root>svg:target{display:block}</style><svg fill="none" viewBox="0 0 11 20" id="fb" xmlns="http://www.w3.org/2000/svg"><path d="M11 0H8a5 5 0 00-5 5v3H0v4h3v8h4v-8h3l1-4H7V5a1 1 0 011-1h3V0z" fill="#7D7D7D"/></svg><svg fill="none" viewBox="0 0 24 24" id="insta" xmlns="http://www.w3.org/2000/svg"><path d="M17 2H7a5 5 0 00-5 5v10a5 5 0 005 5h10a5 5 0 005-5V7a5 5 0 00-5-5z" stroke="#5E5E5E" stroke-width="2" stroke-linecap="round" stroke-linejoin="round"/><path d="M16 11.37a4 4 0 11-7.914 1.174A4 4 0 0116 11.37zM17.5 6.5h.01" stroke="#5E5E5E" stroke-width="2" stroke-linecap="round" stroke-linejoin="round"/></svg><svg fill="none" viewBox="0 0 22 20" id="tg" xmlns="http://www.w3.org/2000/svg"><path d="M8.632 12.916l-.364 5.119c.521 0 .746-.224 1.017-.493l2.441-2.333 5.058 3.705c.928.517 1.581.244 1.832-.854l3.32-15.557v-.001C22.232 1.13 21.442.594 20.538.93L1.021 8.402C-.31 8.92-.29 9.662.795 9.998l4.99 1.552 11.589-7.252c.545-.36 1.04-.161.633.2l-9.375 8.418z" fill="#7D7D7D"/></svg></svg>